<svg version="1.1" id="Layer_1" xmlns="http://www.w3.org/2000/svg" xmlns:xlink="http://www.w3.org/1999/xlink" x="0px" y="0px"
	 width="100%" viewBox="0 0 2339 1654" enable-background="new 0 0 2339 1654" xml:space="preserve">
<path fill="#FFF" opacity="1.000000" stroke="none" 
	d="
M1609.000000,1655.000000 
	C1072.666626,1655.000000 536.833313,1655.000000 1.000000,1655.000000 
	C1.000000,1103.666626 1.000000,552.333313 1.000000,1.000000 
	C780.666687,1.000000 1560.333374,1.000000 2340.000000,1.000000 
	C2340.000000,552.333313 2340.000000,1103.666626 2340.000000,1655.000000 
	C2096.500000,1655.000000 1853.000000,1655.000000 1609.000000,1655.000000 
M1535.324219,176.174667 
	C1516.920898,150.061630 1498.517700,123.948608 1479.301758,96.682434 
	C1293.278931,358.698547 1107.819946,619.920349 921.884277,881.813843 
	C924.002258,881.927429 924.665710,881.994141 925.329163,881.994202 
	C1003.826965,881.999390 1082.324707,881.971313 1160.822388,882.094055 
	C1164.273193,882.099426 1165.797729,880.459106 1167.501221,878.048889 
	C1267.899780,735.986511 1368.333740,593.949158 1468.772461,451.915344 
	C1470.925781,448.870361 1473.174805,445.893127 1475.561890,442.634674 
	C1537.303101,533.104553 1598.652466,623.000427 1660.210205,713.201538 
	C1658.924683,713.201538 1657.666870,713.239807 1656.411865,713.195435 
	C1646.753906,712.854370 1637.097290,712.216248 1627.438843,712.189575 
	C1545.610474,711.963562 1463.781738,711.873779 1381.953491,711.612183 
	C1378.458130,711.601013 1376.539307,712.937439 1374.634644,715.565918 
	C1335.526855,769.535583 1296.350952,823.455872 1257.203125,877.396545 
	C1256.289795,878.654968 1255.542969,880.034241 1254.600708,881.546021 
	C1511.294312,881.546021 1767.410034,881.546021 2024.796997,881.546021 
	C1861.358032,646.018250 1698.545532,411.393036 1535.324219,176.174667 
M717.888916,743.392822 
	C685.252686,789.351318 652.616516,835.309814 619.630371,881.761047 
	C621.195251,881.893127 621.828613,881.993408 622.461975,881.993469 
	C691.289673,882.000854 760.117432,882.025391 828.944763,881.868958 
	C830.804565,881.864746 833.290894,880.354980 834.422668,878.782654 
	C851.162781,855.525269 867.728455,832.142334 884.324829,808.781616 
	C979.943481,674.190613 1075.559814,539.597961 1171.175415,405.004761 
	C1184.290527,386.543243 1197.396851,368.075409 1210.641724,349.420959 
	C1175.493774,299.305115 1140.438110,249.320786 1104.938354,198.703201 
	C975.707703,380.581726 847.015259,561.702759 717.888916,743.392822 
M495.325500,630.820984 
	C436.051727,714.249390 376.777954,797.677795 317.034149,881.767822 
	C318.923218,881.881531 319.707977,881.969971 320.492767,881.970093 
	C388.987030,881.976990 457.481384,882.004883 525.975281,881.841309 
	C527.988464,881.836487 530.685486,880.312805 531.899780,878.648254 
	C542.601562,863.978210 553.036743,849.113770 563.555542,834.310181 
	C634.003479,735.165100 704.440674,636.012390 774.969055,536.924622 
	C776.749329,534.423523 776.677490,532.857666 774.984741,530.451172 
	C741.338989,482.620117 707.776672,434.730438 674.182495,386.863068 
	C673.388367,385.731628 672.423340,384.720123 671.230896,383.282410 
	C612.498840,465.950806 554.134094,548.102173 495.325500,630.820984 
M1696.900391,1339.379761 
	C1688.426270,1350.365479 1679.952148,1361.351318 1670.930908,1373.046265 
	C1673.579346,1373.169312 1675.033081,1373.295898 1676.486938,1373.296143 
	C1750.802979,1373.305542 1825.120239,1373.520020 1899.433960,1373.109497 
	C1913.151978,1373.033569 1927.094849,1371.570557 1940.520508,1368.767334 
	C1977.087524,1361.131958 1997.071289,1339.047485 2000.612427,1304.175659 
	C2004.298950,1267.872314 1989.069580,1243.912476 1955.414673,1233.352539 
	C1938.855713,1228.156616 1921.726929,1227.318359 1904.531738,1227.309448 
	C1862.208252,1227.287476 1819.884644,1227.345093 1777.561401,1227.241089 
	C1772.936157,1227.229736 1768.202515,1226.849365 1763.713135,1225.805664 
	C1755.724976,1223.948364 1751.854248,1218.377930 1751.952515,1210.084717 
	C1752.047485,1202.082886 1755.979248,1196.797119 1764.001099,1195.200073 
	C1769.178223,1194.169434 1774.566040,1193.824097 1779.860596,1193.814697 
	C1833.681152,1193.719604 1887.502197,1193.721802 1941.322754,1193.836670 
	C1944.874146,1193.844238 1947.125610,1192.759644 1949.225708,1189.945435 
	C1958.092285,1178.064209 1967.165527,1166.337402 1976.159058,1154.550903 
	C1982.072998,1146.800171 1987.979492,1139.043945 1994.591064,1130.369385 
	C1992.150879,1130.369385 1990.888550,1130.369507 1989.626099,1130.369507 
	C1920.975464,1130.369629 1852.324585,1130.296753 1783.674194,1130.420166 
	C1766.326904,1130.451294 1749.126587,1132.014404 1732.324585,1136.913574 
	C1700.421997,1146.215820 1682.530518,1166.951050 1679.553467,1198.502441 
	C1676.314453,1232.830566 1692.753662,1258.194702 1725.375732,1269.290771 
	C1740.062256,1274.286255 1755.261353,1275.786011 1770.631714,1275.816040 
	C1814.608276,1275.902100 1858.585205,1275.784180 1902.561401,1275.933105 
	C1907.654175,1275.950317 1912.907715,1276.554688 1917.795654,1277.925171 
	C1925.344604,1280.041870 1928.361084,1285.098877 1928.307617,1293.473389 
	C1928.255127,1301.698486 1925.023682,1306.916626 1917.545044,1308.894897 
	C1912.465576,1310.238647 1907.052124,1310.863525 1901.785889,1310.875244 
	C1842.466797,1311.007812 1783.147095,1310.990601 1723.827759,1310.879639 
	C1720.321899,1310.873047 1718.023193,1311.770508 1715.904663,1314.644165 
	C1709.876221,1322.821289 1703.530762,1330.764771 1696.900391,1339.379761 
M1503.431274,1281.086060 
	C1510.316284,1291.015869 1517.201294,1300.945801 1524.112427,1310.913452 
	C1523.456543,1311.287476 1523.185425,1311.578247 1522.916138,1311.576660 
	C1490.426636,1311.385376 1457.936646,1311.218262 1425.448486,1310.892212 
	C1422.116577,1310.858887 1420.012695,1311.807739 1418.034424,1314.568359 
	C1404.837036,1332.984497 1391.453735,1351.267334 1378.149048,1369.606812 
	C1377.514282,1370.481812 1377.053345,1371.482788 1376.230347,1372.914062 
	C1470.145752,1372.914062 1563.419067,1372.914062 1657.296509,1372.914062 
	C1656.177734,1371.133789 1655.448608,1369.869507 1654.621826,1368.672729 
	C1614.283569,1310.276855 1573.955200,1251.874268 1533.579224,1193.504639 
	C1523.060303,1178.297729 1512.859985,1162.837402 1501.662598,1148.141846 
	C1489.761963,1132.523438 1473.512573,1125.286255 1453.648071,1126.724609 
	C1434.317505,1128.124512 1420.449097,1138.401611 1409.637695,1153.626221 
	C1360.924927,1222.223999 1312.244629,1290.844727 1263.559082,1359.461792 
	C1260.526489,1363.736084 1257.550049,1368.050293 1253.878906,1373.302368 
	C1256.719116,1373.302368 1258.316040,1373.302246 1259.912964,1373.302246 
	C1285.743164,1373.302246 1311.573975,1373.214844 1337.402954,1373.395264 
	C1341.357422,1373.422852 1343.714600,1372.179077 1345.982178,1368.958740 
	C1381.666870,1318.283813 1417.477295,1267.697388 1453.270874,1217.099243 
	C1454.261841,1215.698364 1455.385498,1214.391479 1456.854980,1212.521973 
	C1472.542236,1235.613770 1487.785400,1258.051636 1503.431274,1281.086060 
M447.292847,1316.821167 
	C471.786346,1282.185181 496.279846,1247.549194 521.174377,1212.346191 
	C543.841675,1245.569580 566.082825,1278.168335 588.585449,1311.150391 
	C587.217224,1311.277588 586.569153,1311.392944 585.921631,1311.390137 
	C553.932312,1311.253418 521.942749,1311.147827 489.954285,1310.899170 
	C486.641357,1310.873291 484.539581,1311.786987 482.532684,1314.594727 
	C469.650909,1332.617432 456.541687,1350.477661 443.522003,1368.402100 
	C442.534241,1369.761963 441.662781,1371.206299 440.513977,1372.950439 
	C534.612488,1372.950439 627.809875,1372.950439 721.670898,1372.950439 
	C720.623352,1371.169678 719.972107,1369.884155 719.160706,1368.709106 
	C675.619324,1305.652710 632.070679,1242.601562 588.504578,1179.562256 
	C581.591370,1169.559204 574.897583,1159.384521 567.566528,1149.694458 
	C554.618958,1132.580444 537.399597,1124.549072 515.772888,1126.939209 
	C497.137756,1128.998901 484.032257,1139.658691 473.606323,1154.354126 
	C423.001617,1225.681519 372.413452,1297.020752 321.827759,1368.361572 
	C320.842590,1369.750977 319.960205,1371.213257 318.835693,1372.939697 
	C320.129883,1373.138428 320.620087,1373.279175 321.110352,1373.279541 
	C348.769806,1373.294434 376.429688,1373.360474 404.087646,1373.161499 
	C405.946564,1373.147949 408.399445,1371.561035 409.548767,1369.965698 
	C422.109741,1352.531006 434.466064,1334.948730 447.292847,1316.821167 
M946.248535,1165.774170 
	C955.090881,1154.245605 963.933228,1142.716919 973.248962,1130.571167 
	C971.358582,1130.461548 970.558167,1130.374512 969.757690,1130.374512 
	C880.269836,1130.368042 790.781860,1130.343140 701.294373,1130.513306 
	C699.111084,1130.517456 696.250244,1132.156738 694.856018,1133.935303 
	C680.260742,1152.554810 665.896301,1171.355347 651.487976,1190.121216 
	C650.742920,1191.091553 650.178772,1192.200684 649.126831,1193.895630 
	C687.347351,1193.895630 724.768921,1193.895630 762.848877,1193.895630 
	C762.848877,1253.837891 762.848877,1313.372803 762.848877,1373.037720 
	C788.104370,1373.037720 812.696838,1373.037720 837.970581,1373.037720 
	C837.970581,1313.245850 837.970581,1253.717529 837.970581,1193.759033 
	C840.453674,1193.759033 842.257080,1193.758911 844.060486,1193.758911 
	C869.390381,1193.758667 894.720581,1193.700317 920.049805,1193.828369 
	C923.398926,1193.845215 925.566528,1192.855957 927.567078,1190.134521 
	C933.486206,1182.081909 939.694153,1174.241699 946.248535,1165.774170 
M1208.072754,1373.302002 
	C1209.926025,1372.171265 1212.284058,1371.441895 1213.553101,1369.846313 
	C1224.024902,1356.680054 1234.295044,1343.353271 1244.625977,1330.074951 
	C1249.377075,1323.968384 1254.127319,1317.861328 1259.589233,1310.839844 
	C1196.197144,1310.839844 1134.002319,1310.839844 1071.298950,1310.839844 
	C1071.298950,1250.482666 1071.298950,1190.672729 1071.298950,1130.758789 
	C1046.066650,1130.758789 1021.348572,1130.758789 996.510498,1130.758789 
	C996.510498,1211.705811 996.510498,1292.264526 996.510498,1373.303223 
	C1066.939331,1373.303223 1137.052124,1373.303223 1208.072754,1373.302002 
M1208.500000,1532.115112 
	C1194.500244,1532.115234 1180.500366,1532.086792 1166.500977,1532.154541 
	C1164.921021,1532.162109 1162.655273,1532.147339 1161.874268,1533.099731 
	C1155.708862,1540.616699 1149.826904,1548.366089 1143.702637,1556.243774 
	C1144.786255,1556.647339 1145.070190,1556.845825 1145.354248,1556.845825 
	C1175.852905,1556.838379 1206.358765,1557.170044 1236.844971,1556.543945 
	C1244.415405,1556.388428 1252.440918,1554.249146 1259.343384,1551.049683 
	C1271.416138,1545.453735 1274.064575,1534.218140 1273.026123,1521.941895 
	C1272.159180,1511.692383 1265.814087,1504.767700 1254.585693,1501.490845 
	C1251.889526,1500.704102 1249.053101,1500.021240 1246.269165,1499.971802 
	C1226.282837,1499.616333 1206.293213,1499.448730 1186.305176,1499.184692 
	C1184.149658,1499.156250 1181.566650,1499.577271 1179.954346,1498.562622 
	C1178.009888,1497.339111 1175.786621,1494.835693 1175.729736,1492.828491 
	C1175.674805,1490.888184 1177.814575,1488.113403 1179.729492,1487.094238 
	C1181.901978,1485.938232 1184.894775,1486.088135 1187.532349,1486.078857 
	C1207.198242,1486.009277 1226.865356,1485.956909 1246.530151,1486.116699 
	C1250.174316,1486.146240 1252.715454,1485.388794 1254.849365,1482.159302 
	C1257.964233,1477.445190 1261.680298,1473.130249 1265.102661,1468.616699 
	C1266.817749,1466.354858 1268.449707,1464.030029 1270.511597,1461.194092 
	C1241.068115,1461.194092 1212.737915,1461.067505 1184.410034,1461.271118 
	C1175.894165,1461.332275 1167.471436,1462.710205 1159.857178,1467.018433 
	C1150.066162,1472.558716 1146.367432,1481.428467 1146.703369,1492.169189 
	C1147.036133,1502.803833 1151.940063,1510.990967 1162.079468,1514.588501 
	C1168.223389,1516.768433 1175.003418,1517.896606 1181.538696,1518.086548 
	C1198.024414,1518.565552 1214.533325,1518.212524 1231.032715,1518.277954 
	C1233.850464,1518.289062 1236.700195,1518.524902 1239.475464,1519.003174 
	C1243.494873,1519.696045 1244.984009,1522.500488 1244.525146,1526.320557 
	C1243.998657,1530.703491 1240.800781,1531.987427 1236.998169,1532.032837 
	C1227.833130,1532.142456 1218.666138,1532.097778 1208.500000,1532.115112 
M1424.700195,1513.925903 
	C1426.103882,1534.253296 1436.847290,1547.491333 1456.089600,1553.166382 
	C1481.729614,1560.728394 1507.628906,1560.445435 1533.304932,1553.004395 
	C1542.599487,1550.310669 1550.546997,1545.145386 1556.332275,1537.147827 
	C1574.609131,1511.881714 1562.819824,1474.799438 1533.356934,1464.982300 
	C1514.800659,1458.799194 1495.684937,1459.084473 1476.531860,1460.559448 
	C1471.753296,1460.927490 1466.979492,1461.884033 1462.305908,1462.999146 
	C1435.450928,1469.406494 1423.426392,1485.446411 1424.700195,1513.925903 
M959.183777,1553.308228 
	C950.358887,1544.141235 941.533997,1534.974243 932.665466,1525.761963 
	C933.148804,1525.456543 933.390442,1525.235840 933.674133,1525.139771 
	C934.145386,1524.980591 934.658752,1524.945068 935.128601,1524.782837 
	C947.070862,1520.663574 954.423218,1512.531006 956.109192,1499.901123 
	C957.767456,1487.478882 953.864380,1477.185669 943.207581,1470.014771 
	C935.849976,1465.063843 927.494019,1462.328613 918.793274,1462.084473 
	C895.324646,1461.426025 871.838379,1461.384277 848.358521,1461.168335 
	C847.308838,1461.158569 845.849487,1461.517944 845.261963,1462.251221 
	C839.175110,1469.847656 833.228394,1477.556274 826.616028,1486.037598 
	C829.353699,1486.037598 830.965576,1486.037598 832.577454,1486.037598 
	C857.570007,1486.037598 882.562683,1485.994629 907.554871,1486.086914 
	C911.022156,1486.099731 914.589172,1486.384766 917.927734,1487.248413 
	C922.414368,1488.409302 925.601379,1491.266724 925.924377,1496.315186 
	C926.250244,1501.407471 923.433960,1504.637451 918.995422,1506.106445 
	C915.591248,1507.232910 911.865356,1507.862427 908.277771,1507.883179 
	C882.952820,1508.029419 857.626648,1507.960938 832.300903,1507.960938 
	C830.515076,1507.960938 828.729187,1507.960938 826.894653,1507.960938 
	C826.894653,1524.500977 826.894653,1540.553101 826.894653,1556.598145 
	C836.729919,1556.598145 846.164429,1556.598145 856.350220,1556.598145 
	C856.350220,1548.156982 856.350220,1539.975342 856.350220,1531.462158 
	C871.243591,1531.462158 885.384766,1531.377930 899.521667,1531.585938 
	C901.018311,1531.607910 902.798340,1533.071045 903.917908,1534.334473 
	C908.114258,1539.069824 912.546570,1543.696777 916.033447,1548.934814 
	C920.277710,1555.310547 925.510193,1557.603516 933.134644,1557.044067 
	C942.472229,1556.359131 951.898315,1556.880981 962.143066,1556.880981 
	C960.873291,1555.302979 960.273926,1554.558228 959.183777,1553.308228 
M1662.193604,1486.041260 
	C1664.987427,1486.446289 1667.892090,1486.498901 1670.549927,1487.335938 
	C1674.962158,1488.725098 1678.128540,1491.515869 1678.278687,1496.623169 
	C1678.421875,1501.489624 1675.725220,1504.614014 1671.494141,1506.038208 
	C1668.095703,1507.182129 1664.373901,1507.858154 1660.790283,1507.879639 
	C1635.458984,1508.031250 1610.126465,1507.960205 1584.794312,1507.960205 
	C1583.007935,1507.960205 1581.221680,1507.960205 1579.273682,1507.960205 
	C1579.273682,1524.515259 1579.273682,1540.536133 1579.273682,1556.655029 
	C1589.128906,1556.655029 1598.561890,1556.655029 1608.665771,1556.655029 
	C1608.665771,1548.219360 1608.665771,1539.994263 1608.665771,1531.463013 
	C1623.481201,1531.463013 1637.627808,1531.362305 1651.768677,1531.601562 
	C1653.379517,1531.628784 1655.284790,1533.276611 1656.495728,1534.660889 
	C1661.979614,1540.929932 1667.209961,1547.420166 1672.662231,1553.717773 
	C1673.784058,1555.013428 1675.447632,1556.694946 1676.890381,1556.723267 
	C1689.122681,1556.962646 1701.361694,1556.859985 1715.054565,1556.859985 
	C1704.357788,1545.817627 1694.648804,1535.795166 1684.801636,1525.629883 
	C1686.307983,1525.104614 1687.409790,1524.736206 1688.500366,1524.337402 
	C1700.472412,1519.961426 1707.278809,1511.366089 1708.585938,1498.769775 
	C1709.930420,1485.812134 1705.385986,1475.090332 1693.621338,1469.087036 
	C1686.807617,1465.610229 1678.993652,1462.738647 1671.466187,1462.280029 
	C1652.036133,1461.096313 1632.471802,1462.087280 1613.047363,1460.851074 
	C1602.174927,1460.159302 1594.685547,1462.998169 1589.296387,1472.501343 
	C1586.677246,1477.120117 1582.868530,1481.064331 1579.370972,1485.609497 
	C1580.626587,1485.879150 1580.942993,1486.006470 1581.259399,1486.006714 
	C1607.924683,1486.023926 1634.590088,1486.031128 1662.193604,1486.041260 
M495.500000,1556.883301 
	C506.998688,1556.883301 518.497559,1556.922974 529.996033,1556.867554 
	C536.305237,1556.837158 543.541626,1558.526733 548.661682,1555.999878 
	C553.794067,1553.466919 556.836060,1546.671265 560.751831,1541.710449 
	C563.033203,1538.820435 565.231201,1535.864624 568.306152,1531.839600 
	C540.131042,1531.839600 513.572754,1531.839600 487.194763,1531.839600 
	C487.194763,1527.368164 487.194763,1523.444214 487.194763,1519.116577 
	C489.181732,1519.116577 490.815430,1519.116455 492.449158,1519.116577 
	C508.780609,1519.116821 525.112244,1519.153442 541.443176,1519.063721 
	C543.142395,1519.054443 545.511597,1518.868286 546.423462,1517.792480 
	C551.764404,1511.490845 556.764099,1504.900146 562.589661,1497.504761 
	C536.786560,1497.504761 512.077393,1497.504761 487.230713,1497.504761 
	C487.230713,1493.369385 487.230713,1489.845093 487.230713,1486.039307 
	C506.601593,1486.039307 525.580627,1486.060547 544.559387,1486.000610 
	C546.139099,1485.995605 548.409973,1486.007935 549.186401,1485.055542 
	C555.338745,1477.509033 561.206604,1469.730469 567.624878,1461.423950 
	C530.275513,1461.423950 493.918823,1461.423950 457.332489,1461.423950 
	C457.332489,1493.289429 457.332489,1524.847290 457.332489,1556.883301 
	C469.917755,1556.883301 482.208862,1556.883301 495.500000,1556.883301 
M1067.570923,1482.248657 
	C1072.758179,1475.461792 1077.945435,1468.675049 1083.442749,1461.482422 
	C1046.080322,1461.482422 1009.694519,1461.482422 973.332581,1461.482422 
	C973.332581,1493.404907 973.332581,1524.960205 973.332581,1556.883301 
	C975.522461,1556.883301 977.328796,1556.883423 979.135132,1556.883423 
	C1001.131287,1556.883423 1023.127380,1556.895630 1045.123535,1556.875732 
	C1051.615967,1556.869873 1059.106323,1558.770996 1064.324951,1556.165039 
	C1069.727417,1553.467285 1072.936646,1546.364746 1077.082642,1541.171021 
	C1078.641602,1539.218262 1080.182983,1537.247803 1081.639893,1535.218994 
	C1082.230225,1534.396851 1082.573608,1533.397583 1083.303223,1531.926758 
	C1056.134766,1531.926758 1029.685669,1531.926758 1003.117310,1531.926758 
	C1003.117310,1527.556885 1003.117310,1523.527710 1003.117310,1519.116211 
	C1005.133850,1519.116211 1006.770081,1519.116211 1008.406311,1519.116211 
	C1024.736816,1519.116455 1041.067505,1519.152100 1057.397461,1519.063965 
	C1059.100586,1519.054810 1061.481445,1518.889526 1062.388550,1517.816650 
	C1067.719360,1511.511108 1072.706177,1504.914551 1078.534058,1497.492554 
	C1052.675659,1497.492554 1027.969971,1497.492554 1003.003296,1497.492554 
	C1003.003296,1493.483521 1003.003296,1490.067017 1003.003296,1486.040527 
	C1004.932861,1486.040527 1006.713928,1486.040527 1008.494934,1486.040527 
	C1025.825195,1486.040283 1043.156006,1485.974731 1060.485352,1486.102905 
	C1063.435303,1486.124634 1065.685425,1485.529419 1067.570923,1482.248657 
M664.286133,1465.756226 
	C664.286133,1482.445435 664.286133,1499.134521 664.286133,1517.191650 
	C661.304199,1514.561646 659.460938,1512.959473 657.642883,1511.329102 
	C640.286804,1495.764160 622.907654,1480.224731 605.598083,1464.608032 
	C600.094604,1459.642822 593.903931,1458.359497 587.114624,1461.034058 
	C580.567932,1463.613159 578.348450,1469.253662 577.777222,1475.772949 
	C577.675720,1476.931396 577.675354,1478.101318 577.674927,1479.265869 
	C577.665833,1503.565674 577.658569,1527.865356 577.671509,1552.165161 
	C577.672302,1553.625854 577.844238,1555.086426 577.941528,1556.626099 
	C586.901428,1556.626099 595.493591,1556.626099 604.880615,1556.626099 
	C604.880615,1538.285645 604.880615,1520.192139 604.880615,1500.970459 
	C614.437439,1509.527832 622.985901,1517.172729 631.523376,1524.829712 
	C642.308533,1534.502441 653.095886,1544.172729 663.860107,1553.868774 
	C669.089539,1558.579468 675.079285,1559.481812 681.509644,1557.152588 
	C688.135864,1554.752197 690.580139,1549.255127 691.305420,1542.736694 
	C691.452026,1541.418579 691.383850,1540.074463 691.383972,1538.742310 
	C691.386292,1514.589722 691.384033,1490.437256 691.382690,1466.284668 
	C691.382629,1464.661255 691.382629,1463.037964 691.382629,1461.117065 
	C682.981506,1461.117065 675.161621,1461.229614 667.347839,1461.060303 
	C664.323120,1460.994751 664.146240,1462.629517 664.286133,1465.756226 
M1382.022461,1492.839966 
	C1383.831055,1501.241211 1380.757324,1506.069458 1372.458740,1507.608887 
	C1370.514038,1507.969727 1368.481689,1507.945801 1366.489380,1507.947388 
	C1341.502808,1507.968140 1316.516357,1507.960938 1291.529785,1507.960938 
	C1289.783691,1507.960938 1288.037598,1507.960938 1286.408203,1507.960938 
	C1286.408203,1524.666992 1286.408203,1540.564209 1286.408203,1556.644531 
	C1296.179565,1556.644531 1305.592896,1556.644531 1315.597656,1556.644531 
	C1315.597656,1548.517212 1315.597656,1540.612671 1315.597656,1532.241455 
	C1317.814819,1532.241455 1319.443726,1532.241455 1321.072632,1532.241455 
	C1336.231079,1532.241577 1351.389771,1532.206909 1366.548096,1532.254395 
	C1375.991089,1532.283936 1385.163452,1530.915283 1393.673218,1526.677246 
	C1405.344238,1520.864868 1412.128906,1511.591431 1412.502319,1498.287598 
	C1412.883057,1484.718506 1407.131592,1474.261597 1395.111694,1468.034912 
	C1389.607422,1465.183472 1383.303711,1462.544312 1377.261353,1462.298340 
	C1354.149292,1461.358154 1330.996216,1461.418335 1307.857788,1461.162842 
	C1306.948242,1461.152832 1305.682129,1461.451416 1305.172363,1462.082764 
	C1298.972778,1469.760010 1292.884033,1477.526733 1286.159180,1486.038940 
	C1289.188599,1486.038940 1290.989258,1486.038940 1292.789795,1486.038940 
	C1317.443115,1486.039062 1342.096558,1486.013550 1366.749878,1486.057983 
	C1372.505005,1486.068359 1378.187622,1486.492188 1382.022461,1492.839966 
M387.507263,1532.115112 
	C379.187012,1532.186035 370.856506,1532.596680 363.201538,1528.214111 
	C348.742371,1519.936401 347.836731,1500.775391 361.566467,1491.342529 
	C367.262390,1487.429077 373.724213,1486.080688 380.507202,1486.053955 
	C391.666779,1486.009888 402.908875,1485.201416 413.962860,1486.282593 
	C424.572449,1487.320190 431.571747,1483.950806 436.660706,1474.770996 
	C439.237793,1470.122314 443.025574,1466.144897 446.689240,1461.304932 
	C422.119537,1461.304932 398.646332,1460.743896 375.224426,1461.595093 
	C366.483093,1461.912842 357.331146,1464.318115 349.279175,1467.851562 
	C317.940521,1481.603638 312.684052,1520.870361 338.778564,1542.983643 
	C347.534210,1550.403564 357.757385,1555.114624 369.077393,1555.856934 
	C384.337952,1556.857544 399.718109,1556.053223 414.974609,1557.088867 
	C424.250519,1557.718506 430.842651,1555.456421 435.481262,1547.142578 
	C437.807709,1542.972656 441.312286,1539.465454 444.222046,1535.611816 
	C444.931763,1534.671753 445.397034,1533.547119 446.192444,1532.115234 
	C426.477112,1532.115234 407.490997,1532.115234 387.507263,1532.115112 
M1961.500000,1486.041504 
	C1969.662720,1486.041748 1977.826050,1486.085938 1985.987793,1486.000244 
	C1987.395630,1485.985474 1989.400635,1485.907227 1990.107544,1485.032349 
	C1996.229248,1477.456787 2002.116821,1469.692261 2008.561401,1461.353516 
	C1972.350708,1461.353516 1937.155640,1461.353516 1901.804077,1461.353516 
	C1901.804077,1493.268921 1901.804077,1524.955811 1901.804077,1556.477295 
	C1911.777100,1556.477295 1921.335815,1556.477295 1931.310059,1556.477295 
	C1931.310059,1544.833252 1931.310059,1533.591431 1931.310059,1521.884888 
	C1933.540283,1521.884888 1935.342041,1521.884766 1937.143677,1521.884766 
	C1951.803345,1521.884766 1966.463013,1521.914429 1981.122314,1521.842041 
	C1982.698120,1521.834229 1984.939697,1521.785156 1985.738037,1520.818359 
	C1991.496094,1513.844971 1996.961670,1506.630005 2003.333374,1498.446777 
	C1978.557861,1498.446777 1955.173462,1498.446777 1931.492676,1498.446777 
	C1931.492676,1494.078979 1931.492676,1490.314941 1931.492676,1486.041138 
	C1941.243286,1486.041138 1950.871582,1486.041138 1961.500000,1486.041504 
M1717.270386,1485.132690 
	C1718.770630,1485.435547 1720.269165,1485.991821 1721.771240,1486.001343 
	C1733.269043,1486.074585 1744.767456,1486.041260 1756.265747,1486.041138 
	C1757.833496,1486.041138 1759.401367,1486.041138 1761.483887,1486.041138 
	C1761.483887,1510.131348 1761.483887,1533.377319 1761.483887,1556.573730 
	C1771.429443,1556.573730 1780.849365,1556.573730 1790.739624,1556.573730 
	C1790.739624,1533.047485 1790.739624,1509.826904 1790.739624,1486.041992 
	C1797.491577,1486.041992 1803.872681,1485.351562 1810.044556,1486.193848 
	C1820.989380,1487.687744 1828.766602,1484.319458 1834.097778,1474.415771 
	C1836.530396,1469.896851 1840.321411,1466.109131 1843.828491,1461.558716 
	C1842.277832,1461.289307 1841.813843,1461.138428 1841.349976,1461.138184 
	C1807.188477,1461.122925 1773.026733,1461.069458 1738.866211,1461.248047 
	C1736.954956,1461.258057 1734.517944,1462.748169 1733.240967,1464.301636 
	C1727.849121,1470.861572 1722.804199,1477.706665 1717.270386,1485.132690 
M744.573059,1529.499878 
	C744.573059,1538.560181 744.573059,1547.620483 744.573059,1556.543213 
	C754.892151,1556.543213 764.314392,1556.543213 774.206177,1556.543213 
	C774.206177,1532.997070 774.206177,1509.785156 774.206177,1486.038696 
	C784.619385,1486.038696 794.562378,1486.082642 804.504211,1485.993408 
	C806.067078,1485.979370 808.295837,1485.904053 809.078003,1484.936646 
	C815.184082,1477.384644 821.011597,1469.607422 827.209473,1461.529175 
	C825.886597,1461.292969 825.424866,1461.138306 824.963196,1461.138184 
	C790.650513,1461.123779 756.337830,1461.111328 722.025208,1461.159668 
	C720.792114,1461.161377 719.048096,1461.360474 718.406738,1462.160522 
	C712.332703,1469.738281 706.446411,1477.466431 699.794495,1486.071655 
	C715.458984,1486.071655 729.854431,1486.071655 744.573364,1486.071655 
	C744.573364,1500.546387 744.573364,1514.523071 744.573059,1529.499878 
M1853.384766,1476.505371 
	C1853.384766,1503.241821 1853.384766,1529.978149 1853.384766,1556.665771 
	C1863.676758,1556.665771 1873.120117,1556.665771 1882.683350,1556.665771 
	C1882.683350,1524.730103 1882.683350,1493.062378 1882.683350,1461.370850 
	C1872.767456,1461.370850 1863.338013,1461.370850 1853.384888,1461.370850 
	C1853.384888,1466.250854 1853.384888,1470.879517 1853.384766,1476.505371 
z"/>
<path fill="#000000" opacity="1.000000" stroke="none" 
	d="
M1535.528564,176.471237 
	C1698.545532,411.393036 1861.358032,646.018250 2024.796997,881.546021 
	C1767.410034,881.546021 1511.294312,881.546021 1254.600708,881.546021 
	C1255.542969,880.034241 1256.289795,878.654968 1257.203125,877.396545 
	C1296.350952,823.455872 1335.526855,769.535583 1374.634644,715.565918 
	C1376.539307,712.937439 1378.458130,711.601013 1381.953491,711.612183 
	C1463.781738,711.873779 1545.610474,711.963562 1627.438843,712.189575 
	C1637.097290,712.216248 1646.753906,712.854370 1656.411865,713.195435 
	C1657.666870,713.239807 1658.924683,713.201538 1660.210205,713.201538 
	C1598.652466,623.000427 1537.303101,533.104553 1475.561890,442.634674 
	C1473.174805,445.893127 1470.925781,448.870361 1468.772461,451.915344 
	C1368.333740,593.949158 1267.899780,735.986511 1167.501221,878.048889 
	C1165.797729,880.459106 1164.273193,882.099426 1160.822388,882.094055 
	C1082.324707,881.971313 1003.826965,881.999390 925.329163,881.994202 
	C924.665710,881.994141 924.002258,881.927429 921.884277,881.813843 
	C1107.819946,619.920349 1293.278931,358.698547 1479.301758,96.682434 
	C1498.517700,123.948608 1516.920898,150.061630 1535.528564,176.471237 
z"/>
<path fill="#000000" opacity="1.000000" stroke="none" 
	d="
M718.105896,743.108276 
	C847.015259,561.702759 975.707703,380.581726 1104.938354,198.703201 
	C1140.438110,249.320786 1175.493774,299.305115 1210.641724,349.420959 
	C1197.396851,368.075409 1184.290527,386.543243 1171.175415,405.004761 
	C1075.559814,539.597961 979.943481,674.190613 884.324829,808.781616 
	C867.728455,832.142334 851.162781,855.525269 834.422668,878.782654 
	C833.290894,880.354980 830.804565,881.864746 828.944763,881.868958 
	C760.117432,882.025391 691.289673,882.000854 622.461975,881.993469 
	C621.828613,881.993408 621.195251,881.893127 619.630371,881.761047 
	C652.616516,835.309814 685.252686,789.351318 718.105896,743.108276 
z"/>
<path fill="#000000" opacity="1.000000" stroke="none" 
	d="
M495.547424,630.537231 
	C554.134094,548.102173 612.498840,465.950806 671.230896,383.282410 
	C672.423340,384.720123 673.388367,385.731628 674.182495,386.863068 
	C707.776672,434.730438 741.338989,482.620117 774.984741,530.451172 
	C776.677490,532.857666 776.749329,534.423523 774.969055,536.924622 
	C704.440674,636.012390 634.003479,735.165100 563.555542,834.310181 
	C553.036743,849.113770 542.601562,863.978210 531.899780,878.648254 
	C530.685486,880.312805 527.988464,881.836487 525.975281,881.841309 
	C457.481384,882.004883 388.987030,881.976990 320.492767,881.970093 
	C319.707977,881.969971 318.923218,881.881531 317.034149,881.767822 
	C376.777954,797.677795 436.051727,714.249390 495.547424,630.537231 
z"/>
<path fill="#000000" opacity="1.000000" stroke="none" 
	d="
M1697.105347,1339.090088 
	C1703.530762,1330.764771 1709.876221,1322.821289 1715.904663,1314.644165 
	C1718.023193,1311.770508 1720.321899,1310.873047 1723.827759,1310.879639 
	C1783.147095,1310.990601 1842.466797,1311.007812 1901.785889,1310.875244 
	C1907.052124,1310.863525 1912.465576,1310.238647 1917.545044,1308.894897 
	C1925.023682,1306.916626 1928.255127,1301.698486 1928.307617,1293.473389 
	C1928.361084,1285.098877 1925.344604,1280.041870 1917.795654,1277.925171 
	C1912.907715,1276.554688 1907.654175,1275.950317 1902.561401,1275.933105 
	C1858.585205,1275.784180 1814.608276,1275.902100 1770.631714,1275.816040 
	C1755.261353,1275.786011 1740.062256,1274.286255 1725.375732,1269.290771 
	C1692.753662,1258.194702 1676.314453,1232.830566 1679.553467,1198.502441 
	C1682.530518,1166.951050 1700.421997,1146.215820 1732.324585,1136.913574 
	C1749.126587,1132.014404 1766.326904,1130.451294 1783.674194,1130.420166 
	C1852.324585,1130.296753 1920.975464,1130.369629 1989.626099,1130.369507 
	C1990.888550,1130.369507 1992.150879,1130.369385 1994.591064,1130.369385 
	C1987.979492,1139.043945 1982.072998,1146.800171 1976.159058,1154.550903 
	C1967.165527,1166.337402 1958.092285,1178.064209 1949.225708,1189.945435 
	C1947.125610,1192.759644 1944.874146,1193.844238 1941.322754,1193.836670 
	C1887.502197,1193.721802 1833.681152,1193.719604 1779.860596,1193.814697 
	C1774.566040,1193.824097 1769.178223,1194.169434 1764.001099,1195.200073 
	C1755.979248,1196.797119 1752.047485,1202.082886 1751.952515,1210.084717 
	C1751.854248,1218.377930 1755.724976,1223.948364 1763.713135,1225.805664 
	C1768.202515,1226.849365 1772.936157,1227.229736 1777.561401,1227.241089 
	C1819.884644,1227.345093 1862.208252,1227.287476 1904.531738,1227.309448 
	C1921.726929,1227.318359 1938.855713,1228.156616 1955.414673,1233.352539 
	C1989.069580,1243.912476 2004.298950,1267.872314 2000.612427,1304.175659 
	C1997.071289,1339.047485 1977.087524,1361.131958 1940.520508,1368.767334 
	C1927.094849,1371.570557 1913.151978,1373.033569 1899.433960,1373.109497 
	C1825.120239,1373.520020 1750.802979,1373.305542 1676.486938,1373.296143 
	C1675.033081,1373.295898 1673.579346,1373.169312 1670.930908,1373.046265 
	C1679.952148,1361.351318 1688.426270,1350.365479 1697.105347,1339.090088 
z"/>
<path fill="#000000" opacity="1.000000" stroke="none" 
	d="
M1503.229858,1280.787842 
	C1487.785400,1258.051636 1472.542236,1235.613770 1456.854980,1212.521973 
	C1455.385498,1214.391479 1454.261841,1215.698364 1453.270874,1217.099243 
	C1417.477295,1267.697388 1381.666870,1318.283813 1345.982178,1368.958740 
	C1343.714600,1372.179077 1341.357422,1373.422852 1337.402954,1373.395264 
	C1311.573975,1373.214844 1285.743164,1373.302246 1259.912964,1373.302246 
	C1258.316040,1373.302246 1256.719116,1373.302368 1253.878906,1373.302368 
	C1257.550049,1368.050293 1260.526489,1363.736084 1263.559082,1359.461792 
	C1312.244629,1290.844727 1360.924927,1222.223999 1409.637695,1153.626221 
	C1420.449097,1138.401611 1434.317505,1128.124512 1453.648071,1126.724609 
	C1473.512573,1125.286255 1489.761963,1132.523438 1501.662598,1148.141846 
	C1512.859985,1162.837402 1523.060303,1178.297729 1533.579224,1193.504639 
	C1573.955200,1251.874268 1614.283569,1310.276855 1654.621826,1368.672729 
	C1655.448608,1369.869507 1656.177734,1371.133789 1657.296509,1372.914062 
	C1563.419067,1372.914062 1470.145752,1372.914062 1376.230347,1372.914062 
	C1377.053345,1371.482788 1377.514282,1370.481812 1378.149048,1369.606812 
	C1391.453735,1351.267334 1404.837036,1332.984497 1418.034424,1314.568359 
	C1420.012695,1311.807739 1422.116577,1310.858887 1425.448486,1310.892212 
	C1457.936646,1311.218262 1490.426636,1311.385376 1522.916138,1311.576660 
	C1523.185425,1311.578247 1523.456543,1311.287476 1524.112427,1310.913452 
	C1517.201294,1300.945801 1510.316284,1291.015869 1503.229858,1280.787842 
z"/>
<path fill="#000000" opacity="1.000000" stroke="none" 
	d="
M447.085419,1317.113892 
	C434.466064,1334.948730 422.109741,1352.531006 409.548767,1369.965698 
	C408.399445,1371.561035 405.946564,1373.147949 404.087646,1373.161499 
	C376.429688,1373.360474 348.769806,1373.294434 321.110352,1373.279541 
	C320.620087,1373.279175 320.129883,1373.138428 318.835693,1372.939697 
	C319.960205,1371.213257 320.842590,1369.750977 321.827759,1368.361572 
	C372.413452,1297.020752 423.001617,1225.681519 473.606323,1154.354126 
	C484.032257,1139.658691 497.137756,1128.998901 515.772888,1126.939209 
	C537.399597,1124.549072 554.618958,1132.580444 567.566528,1149.694458 
	C574.897583,1159.384521 581.591370,1169.559204 588.504578,1179.562256 
	C632.070679,1242.601562 675.619324,1305.652710 719.160706,1368.709106 
	C719.972107,1369.884155 720.623352,1371.169678 721.670898,1372.950439 
	C627.809875,1372.950439 534.612488,1372.950439 440.513977,1372.950439 
	C441.662781,1371.206299 442.534241,1369.761963 443.522003,1368.402100 
	C456.541687,1350.477661 469.650909,1332.617432 482.532684,1314.594727 
	C484.539581,1311.786987 486.641357,1310.873291 489.954285,1310.899170 
	C521.942749,1311.147827 553.932312,1311.253418 585.921631,1311.390137 
	C586.569153,1311.392944 587.217224,1311.277588 588.585449,1311.150391 
	C566.082825,1278.168335 543.841675,1245.569580 521.174377,1212.346191 
	C496.279846,1247.549194 471.786346,1282.185181 447.085419,1317.113892 
z"/>
<path fill="#000000" opacity="1.000000" stroke="none" 
	d="
M946.018921,1166.046265 
	C939.694153,1174.241699 933.486206,1182.081909 927.567078,1190.134521 
	C925.566528,1192.855957 923.398926,1193.845215 920.049805,1193.828369 
	C894.720581,1193.700317 869.390381,1193.758667 844.060486,1193.758911 
	C842.257080,1193.758911 840.453674,1193.759033 837.970581,1193.759033 
	C837.970581,1253.717529 837.970581,1313.245850 837.970581,1373.037720 
	C812.696838,1373.037720 788.104370,1373.037720 762.848877,1373.037720 
	C762.848877,1313.372803 762.848877,1253.837891 762.848877,1193.895630 
	C724.768921,1193.895630 687.347351,1193.895630 649.126831,1193.895630 
	C650.178772,1192.200684 650.742920,1191.091553 651.487976,1190.121216 
	C665.896301,1171.355347 680.260742,1152.554810 694.856018,1133.935303 
	C696.250244,1132.156738 699.111084,1130.517456 701.294373,1130.513306 
	C790.781860,1130.343140 880.269836,1130.368042 969.757690,1130.374512 
	C970.558167,1130.374512 971.358582,1130.461548 973.248962,1130.571167 
	C963.933228,1142.716919 955.090881,1154.245605 946.018921,1166.046265 
z"/>
<path fill="#000000" opacity="1.000000" stroke="none" 
	d="
M1207.618774,1373.302612 
	C1137.052124,1373.303223 1066.939331,1373.303223 996.510498,1373.303223 
	C996.510498,1292.264526 996.510498,1211.705811 996.510498,1130.758789 
	C1021.348572,1130.758789 1046.066650,1130.758789 1071.298950,1130.758789 
	C1071.298950,1190.672729 1071.298950,1250.482666 1071.298950,1310.839844 
	C1134.002319,1310.839844 1196.197144,1310.839844 1259.589233,1310.839844 
	C1254.127319,1317.861328 1249.377075,1323.968384 1244.625977,1330.074951 
	C1234.295044,1343.353271 1224.024902,1356.680054 1213.553101,1369.846313 
	C1212.284058,1371.441895 1209.926025,1372.171265 1207.618774,1373.302612 
z"/>
<path fill="#000000" opacity="1.000000" stroke="none" 
	d="
M1209.000000,1532.115234 
	C1218.666138,1532.097778 1227.833130,1532.142456 1236.998169,1532.032837 
	C1240.800781,1531.987427 1243.998657,1530.703491 1244.525146,1526.320557 
	C1244.984009,1522.500488 1243.494873,1519.696045 1239.475464,1519.003174 
	C1236.700195,1518.524902 1233.850464,1518.289062 1231.032715,1518.277954 
	C1214.533325,1518.212524 1198.024414,1518.565552 1181.538696,1518.086548 
	C1175.003418,1517.896606 1168.223389,1516.768433 1162.079468,1514.588501 
	C1151.940063,1510.990967 1147.036133,1502.803833 1146.703369,1492.169189 
	C1146.367432,1481.428467 1150.066162,1472.558716 1159.857178,1467.018433 
	C1167.471436,1462.710205 1175.894165,1461.332275 1184.410034,1461.271118 
	C1212.737915,1461.067505 1241.068115,1461.194092 1270.511597,1461.194092 
	C1268.449707,1464.030029 1266.817749,1466.354858 1265.102661,1468.616699 
	C1261.680298,1473.130249 1257.964233,1477.445190 1254.849365,1482.159302 
	C1252.715454,1485.388794 1250.174316,1486.146240 1246.530151,1486.116699 
	C1226.865356,1485.956909 1207.198242,1486.009277 1187.532349,1486.078857 
	C1184.894775,1486.088135 1181.901978,1485.938232 1179.729492,1487.094238 
	C1177.814575,1488.113403 1175.674805,1490.888184 1175.729736,1492.828491 
	C1175.786621,1494.835693 1178.009888,1497.339111 1179.954346,1498.562622 
	C1181.566650,1499.577271 1184.149658,1499.156250 1186.305176,1499.184692 
	C1206.293213,1499.448730 1226.282837,1499.616333 1246.269165,1499.971802 
	C1249.053101,1500.021240 1251.889526,1500.704102 1254.585693,1501.490845 
	C1265.814087,1504.767700 1272.159180,1511.692383 1273.026123,1521.941895 
	C1274.064575,1534.218140 1271.416138,1545.453735 1259.343384,1551.049683 
	C1252.440918,1554.249146 1244.415405,1556.388428 1236.844971,1556.543945 
	C1206.358765,1557.170044 1175.852905,1556.838379 1145.354248,1556.845825 
	C1145.070190,1556.845825 1144.786255,1556.647339 1143.702637,1556.243774 
	C1149.826904,1548.366089 1155.708862,1540.616699 1161.874268,1533.099731 
	C1162.655273,1532.147339 1164.921021,1532.162109 1166.500977,1532.154541 
	C1180.500366,1532.086792 1194.500244,1532.115234 1209.000000,1532.115234 
z"/>
<path fill="#000000" opacity="1.000000" stroke="none" 
	d="
M1424.660645,1513.479004 
	C1423.426392,1485.446411 1435.450928,1469.406494 1462.305908,1462.999146 
	C1466.979492,1461.884033 1471.753296,1460.927490 1476.531860,1460.559448 
	C1495.684937,1459.084473 1514.800659,1458.799194 1533.356934,1464.982300 
	C1562.819824,1474.799438 1574.609131,1511.881714 1556.332275,1537.147827 
	C1550.546997,1545.145386 1542.599487,1550.310669 1533.304932,1553.004395 
	C1507.628906,1560.445435 1481.729614,1560.728394 1456.089600,1553.166382 
	C1436.847290,1547.491333 1426.103882,1534.253296 1424.660645,1513.479004 
M1455.202881,1518.956299 
	C1457.601318,1527.353638 1464.135620,1531.236206 1471.906738,1531.791748 
	C1485.300171,1532.749146 1498.790405,1532.952759 1512.216675,1532.595703 
	C1519.140747,1532.411621 1526.216675,1530.660889 1530.859619,1524.510742 
	C1541.667725,1510.194214 1533.354370,1488.191528 1515.766479,1486.102661 
	C1503.943726,1484.698364 1491.864136,1484.718018 1479.933838,1485.120483 
	C1458.652100,1485.838745 1450.781860,1496.244263 1454.763550,1517.193970 
	C1454.825684,1517.520630 1454.914917,1517.842163 1455.202881,1518.956299 
z"/>
<path fill="#000000" opacity="1.000000" stroke="none" 
	d="
M959.429199,1553.560791 
	C960.273926,1554.558228 960.873291,1555.302979 962.143066,1556.880981 
	C951.898315,1556.880981 942.472229,1556.359131 933.134644,1557.044067 
	C925.510193,1557.603516 920.277710,1555.310547 916.033447,1548.934814 
	C912.546570,1543.696777 908.114258,1539.069824 903.917908,1534.334473 
	C902.798340,1533.071045 901.018311,1531.607910 899.521667,1531.585938 
	C885.384766,1531.377930 871.243591,1531.462158 856.350220,1531.462158 
	C856.350220,1539.975342 856.350220,1548.156982 856.350220,1556.598145 
	C846.164429,1556.598145 836.729919,1556.598145 826.894653,1556.598145 
	C826.894653,1540.553101 826.894653,1524.500977 826.894653,1507.960938 
	C828.729187,1507.960938 830.515076,1507.960938 832.300903,1507.960938 
	C857.626648,1507.960938 882.952820,1508.029419 908.277771,1507.883179 
	C911.865356,1507.862427 915.591248,1507.232910 918.995422,1506.106445 
	C923.433960,1504.637451 926.250244,1501.407471 925.924377,1496.315186 
	C925.601379,1491.266724 922.414368,1488.409302 917.927734,1487.248413 
	C914.589172,1486.384766 911.022156,1486.099731 907.554871,1486.086914 
	C882.562683,1485.994629 857.570007,1486.037598 832.577454,1486.037598 
	C830.965576,1486.037598 829.353699,1486.037598 826.616028,1486.037598 
	C833.228394,1477.556274 839.175110,1469.847656 845.261963,1462.251221 
	C845.849487,1461.517944 847.308838,1461.158569 848.358521,1461.168335 
	C871.838379,1461.384277 895.324646,1461.426025 918.793274,1462.084473 
	C927.494019,1462.328613 935.849976,1465.063843 943.207581,1470.014771 
	C953.864380,1477.185669 957.767456,1487.478882 956.109192,1499.901123 
	C954.423218,1512.531006 947.070862,1520.663574 935.128601,1524.782837 
	C934.658752,1524.945068 934.145386,1524.980591 933.674133,1525.139771 
	C933.390442,1525.235840 933.148804,1525.456543 932.665466,1525.761963 
	C941.533997,1534.974243 950.358887,1544.141235 959.429199,1553.560791 
z"/>
<path fill="#000000" opacity="1.000000" stroke="none" 
	d="
M1661.724487,1486.040161 
	C1634.590088,1486.031128 1607.924683,1486.023926 1581.259399,1486.006714 
	C1580.942993,1486.006470 1580.626587,1485.879150 1579.370972,1485.609497 
	C1582.868530,1481.064331 1586.677246,1477.120117 1589.296387,1472.501343 
	C1594.685547,1462.998169 1602.174927,1460.159302 1613.047363,1460.851074 
	C1632.471802,1462.087280 1652.036133,1461.096313 1671.466187,1462.280029 
	C1678.993652,1462.738647 1686.807617,1465.610229 1693.621338,1469.087036 
	C1705.385986,1475.090332 1709.930420,1485.812134 1708.585938,1498.769775 
	C1707.278809,1511.366089 1700.472412,1519.961426 1688.500366,1524.337402 
	C1687.409790,1524.736206 1686.307983,1525.104614 1684.801636,1525.629883 
	C1694.648804,1535.795166 1704.357788,1545.817627 1715.054565,1556.859985 
	C1701.361694,1556.859985 1689.122681,1556.962646 1676.890381,1556.723267 
	C1675.447632,1556.694946 1673.784058,1555.013428 1672.662231,1553.717773 
	C1667.209961,1547.420166 1661.979614,1540.929932 1656.495728,1534.660889 
	C1655.284790,1533.276611 1653.379517,1531.628784 1651.768677,1531.601562 
	C1637.627808,1531.362305 1623.481201,1531.463013 1608.665771,1531.463013 
	C1608.665771,1539.994263 1608.665771,1548.219360 1608.665771,1556.655029 
	C1598.561890,1556.655029 1589.128906,1556.655029 1579.273682,1556.655029 
	C1579.273682,1540.536133 1579.273682,1524.515259 1579.273682,1507.960205 
	C1581.221680,1507.960205 1583.007935,1507.960205 1584.794312,1507.960205 
	C1610.126465,1507.960205 1635.458984,1508.031250 1660.790283,1507.879639 
	C1664.373901,1507.858154 1668.095703,1507.182129 1671.494141,1506.038208 
	C1675.725220,1504.614014 1678.421875,1501.489624 1678.278687,1496.623169 
	C1678.128540,1491.515869 1674.962158,1488.725098 1670.549927,1487.335938 
	C1667.892090,1486.498901 1664.987427,1486.446289 1661.724487,1486.040161 
z"/>
<path fill="#000000" opacity="1.000000" stroke="none" 
	d="
M495.000000,1556.883301 
	C482.208862,1556.883301 469.917755,1556.883301 457.332489,1556.883301 
	C457.332489,1524.847290 457.332489,1493.289429 457.332489,1461.423950 
	C493.918823,1461.423950 530.275513,1461.423950 567.624878,1461.423950 
	C561.206604,1469.730469 555.338745,1477.509033 549.186401,1485.055542 
	C548.409973,1486.007935 546.139099,1485.995605 544.559387,1486.000610 
	C525.580627,1486.060547 506.601593,1486.039307 487.230713,1486.039307 
	C487.230713,1489.845093 487.230713,1493.369385 487.230713,1497.504761 
	C512.077393,1497.504761 536.786560,1497.504761 562.589661,1497.504761 
	C556.764099,1504.900146 551.764404,1511.490845 546.423462,1517.792480 
	C545.511597,1518.868286 543.142395,1519.054443 541.443176,1519.063721 
	C525.112244,1519.153442 508.780609,1519.116821 492.449158,1519.116577 
	C490.815430,1519.116455 489.181732,1519.116577 487.194763,1519.116577 
	C487.194763,1523.444214 487.194763,1527.368164 487.194763,1531.839600 
	C513.572754,1531.839600 540.131042,1531.839600 568.306152,1531.839600 
	C565.231201,1535.864624 563.033203,1538.820435 560.751831,1541.710449 
	C556.836060,1546.671265 553.794067,1553.466919 548.661682,1555.999878 
	C543.541626,1558.526733 536.305237,1556.837158 529.996033,1556.867554 
	C518.497559,1556.922974 506.998688,1556.883301 495.000000,1556.883301 
z"/>
<path fill="#000000" opacity="1.000000" stroke="none" 
	d="
M1067.348389,1482.552490 
	C1065.685425,1485.529419 1063.435303,1486.124634 1060.485352,1486.102905 
	C1043.156006,1485.974731 1025.825195,1486.040283 1008.494934,1486.040527 
	C1006.713928,1486.040527 1004.932861,1486.040527 1003.003296,1486.040527 
	C1003.003296,1490.067017 1003.003296,1493.483521 1003.003296,1497.492554 
	C1027.969971,1497.492554 1052.675659,1497.492554 1078.534058,1497.492554 
	C1072.706177,1504.914551 1067.719360,1511.511108 1062.388550,1517.816650 
	C1061.481445,1518.889526 1059.100586,1519.054810 1057.397461,1519.063965 
	C1041.067505,1519.152100 1024.736816,1519.116455 1008.406311,1519.116211 
	C1006.770081,1519.116211 1005.133850,1519.116211 1003.117310,1519.116211 
	C1003.117310,1523.527710 1003.117310,1527.556885 1003.117310,1531.926758 
	C1029.685669,1531.926758 1056.134766,1531.926758 1083.303223,1531.926758 
	C1082.573608,1533.397583 1082.230225,1534.396851 1081.639893,1535.218994 
	C1080.182983,1537.247803 1078.641602,1539.218262 1077.082642,1541.171021 
	C1072.936646,1546.364746 1069.727417,1553.467285 1064.324951,1556.165039 
	C1059.106323,1558.770996 1051.615967,1556.869873 1045.123535,1556.875732 
	C1023.127380,1556.895630 1001.131287,1556.883423 979.135132,1556.883423 
	C977.328796,1556.883423 975.522461,1556.883301 973.332581,1556.883301 
	C973.332581,1524.960205 973.332581,1493.404907 973.332581,1461.482422 
	C1009.694519,1461.482422 1046.080322,1461.482422 1083.442749,1461.482422 
	C1077.945435,1468.675049 1072.758179,1475.461792 1067.348389,1482.552490 
z"/>
<path fill="#000000" opacity="1.000000" stroke="none" 
	d="
M664.287476,1465.289795 
	C664.146240,1462.629517 664.323120,1460.994751 667.347839,1461.060303 
	C675.161621,1461.229614 682.981506,1461.117065 691.382629,1461.117065 
	C691.382629,1463.037964 691.382629,1464.661255 691.382690,1466.284668 
	C691.384033,1490.437256 691.386292,1514.589722 691.383972,1538.742310 
	C691.383850,1540.074463 691.452026,1541.418579 691.305420,1542.736694 
	C690.580139,1549.255127 688.135864,1554.752197 681.509644,1557.152588 
	C675.079285,1559.481812 669.089539,1558.579468 663.860107,1553.868774 
	C653.095886,1544.172729 642.308533,1534.502441 631.523376,1524.829712 
	C622.985901,1517.172729 614.437439,1509.527832 604.880615,1500.970459 
	C604.880615,1520.192139 604.880615,1538.285645 604.880615,1556.626099 
	C595.493591,1556.626099 586.901428,1556.626099 577.941528,1556.626099 
	C577.844238,1555.086426 577.672302,1553.625854 577.671509,1552.165161 
	C577.658569,1527.865356 577.665833,1503.565674 577.674927,1479.265869 
	C577.675354,1478.101318 577.675720,1476.931396 577.777222,1475.772949 
	C578.348450,1469.253662 580.567932,1463.613159 587.114624,1461.034058 
	C593.903931,1458.359497 600.094604,1459.642822 605.598083,1464.608032 
	C622.907654,1480.224731 640.286804,1495.764160 657.642883,1511.329102 
	C659.460938,1512.959473 661.304199,1514.561646 664.286133,1517.191650 
	C664.286133,1499.134521 664.286133,1482.445435 664.287476,1465.289795 
z"/>
<path fill="#000000" opacity="1.000000" stroke="none" 
	d="
M1381.854492,1492.493652 
	C1378.187622,1486.492188 1372.505005,1486.068359 1366.749878,1486.057983 
	C1342.096558,1486.013550 1317.443115,1486.039062 1292.789795,1486.038940 
	C1290.989258,1486.038940 1289.188599,1486.038940 1286.159180,1486.038940 
	C1292.884033,1477.526733 1298.972778,1469.760010 1305.172363,1462.082764 
	C1305.682129,1461.451416 1306.948242,1461.152832 1307.857788,1461.162842 
	C1330.996216,1461.418335 1354.149292,1461.358154 1377.261353,1462.298340 
	C1383.303711,1462.544312 1389.607422,1465.183472 1395.111694,1468.034912 
	C1407.131592,1474.261597 1412.883057,1484.718506 1412.502319,1498.287598 
	C1412.128906,1511.591431 1405.344238,1520.864868 1393.673218,1526.677246 
	C1385.163452,1530.915283 1375.991089,1532.283936 1366.548096,1532.254395 
	C1351.389771,1532.206909 1336.231079,1532.241577 1321.072632,1532.241455 
	C1319.443726,1532.241455 1317.814819,1532.241455 1315.597656,1532.241455 
	C1315.597656,1540.612671 1315.597656,1548.517212 1315.597656,1556.644531 
	C1305.592896,1556.644531 1296.179565,1556.644531 1286.408203,1556.644531 
	C1286.408203,1540.564209 1286.408203,1524.666992 1286.408203,1507.960938 
	C1288.037598,1507.960938 1289.783691,1507.960938 1291.529785,1507.960938 
	C1316.516357,1507.960938 1341.502808,1507.968140 1366.489380,1507.947388 
	C1368.481689,1507.945801 1370.514038,1507.969727 1372.458740,1507.608887 
	C1380.757324,1506.069458 1383.831055,1501.241211 1381.854492,1492.493652 
z"/>
<path fill="#000000" opacity="1.000000" stroke="none" 
	d="
M388.006073,1532.115234 
	C407.490997,1532.115234 426.477112,1532.115234 446.192444,1532.115234 
	C445.397034,1533.547119 444.931763,1534.671753 444.222046,1535.611816 
	C441.312286,1539.465454 437.807709,1542.972656 435.481262,1547.142578 
	C430.842651,1555.456421 424.250519,1557.718506 414.974609,1557.088867 
	C399.718109,1556.053223 384.337952,1556.857544 369.077393,1555.856934 
	C357.757385,1555.114624 347.534210,1550.403564 338.778564,1542.983643 
	C312.684052,1520.870361 317.940521,1481.603638 349.279175,1467.851562 
	C357.331146,1464.318115 366.483093,1461.912842 375.224426,1461.595093 
	C398.646332,1460.743896 422.119537,1461.304932 446.689240,1461.304932 
	C443.025574,1466.144897 439.237793,1470.122314 436.660706,1474.770996 
	C431.571747,1483.950806 424.572449,1487.320190 413.962860,1486.282593 
	C402.908875,1485.201416 391.666779,1486.009888 380.507202,1486.053955 
	C373.724213,1486.080688 367.262390,1487.429077 361.566467,1491.342529 
	C347.836731,1500.775391 348.742371,1519.936401 363.201538,1528.214111 
	C370.856506,1532.596680 379.187012,1532.186035 388.006073,1532.115234 
z"/>
<path fill="#000000" opacity="1.000000" stroke="none" 
	d="
M1961.000000,1486.041260 
	C1950.871582,1486.041138 1941.243286,1486.041138 1931.492676,1486.041138 
	C1931.492676,1490.314941 1931.492676,1494.078979 1931.492676,1498.446777 
	C1955.173462,1498.446777 1978.557861,1498.446777 2003.333374,1498.446777 
	C1996.961670,1506.630005 1991.496094,1513.844971 1985.738037,1520.818359 
	C1984.939697,1521.785156 1982.698120,1521.834229 1981.122314,1521.842041 
	C1966.463013,1521.914429 1951.803345,1521.884766 1937.143677,1521.884766 
	C1935.342041,1521.884766 1933.540283,1521.884888 1931.310059,1521.884888 
	C1931.310059,1533.591431 1931.310059,1544.833252 1931.310059,1556.477295 
	C1921.335815,1556.477295 1911.777100,1556.477295 1901.804077,1556.477295 
	C1901.804077,1524.955811 1901.804077,1493.268921 1901.804077,1461.353516 
	C1937.155640,1461.353516 1972.350708,1461.353516 2008.561401,1461.353516 
	C2002.116821,1469.692261 1996.229248,1477.456787 1990.107544,1485.032349 
	C1989.400635,1485.907227 1987.395630,1485.985474 1985.987793,1486.000244 
	C1977.826050,1486.085938 1969.662720,1486.041748 1961.000000,1486.041260 
z"/>
<path fill="#000000" opacity="1.000000" stroke="none" 
	d="
M1717.451416,1484.790039 
	C1722.804199,1477.706665 1727.849121,1470.861572 1733.240967,1464.301636 
	C1734.517944,1462.748169 1736.954956,1461.258057 1738.866211,1461.248047 
	C1773.026733,1461.069458 1807.188477,1461.122925 1841.349976,1461.138184 
	C1841.813843,1461.138428 1842.277832,1461.289307 1843.828491,1461.558716 
	C1840.321411,1466.109131 1836.530396,1469.896851 1834.097778,1474.415771 
	C1828.766602,1484.319458 1820.989380,1487.687744 1810.044556,1486.193848 
	C1803.872681,1485.351562 1797.491577,1486.041992 1790.739624,1486.041992 
	C1790.739624,1509.826904 1790.739624,1533.047485 1790.739624,1556.573730 
	C1780.849365,1556.573730 1771.429443,1556.573730 1761.483887,1556.573730 
	C1761.483887,1533.377319 1761.483887,1510.131348 1761.483887,1486.041138 
	C1759.401367,1486.041138 1757.833496,1486.041138 1756.265747,1486.041138 
	C1744.767456,1486.041260 1733.269043,1486.074585 1721.771240,1486.001343 
	C1720.269165,1485.991821 1718.770630,1485.435547 1717.451416,1484.790039 
z"/>
<path fill="#000000" opacity="1.000000" stroke="none" 
	d="
M744.573242,1528.999756 
	C744.573364,1514.523071 744.573364,1500.546387 744.573364,1486.071655 
	C729.854431,1486.071655 715.458984,1486.071655 699.794495,1486.071655 
	C706.446411,1477.466431 712.332703,1469.738281 718.406738,1462.160522 
	C719.048096,1461.360474 720.792114,1461.161377 722.025208,1461.159668 
	C756.337830,1461.111328 790.650513,1461.123779 824.963196,1461.138184 
	C825.424866,1461.138306 825.886597,1461.292969 827.209473,1461.529175 
	C821.011597,1469.607422 815.184082,1477.384644 809.078003,1484.936646 
	C808.295837,1485.904053 806.067078,1485.979370 804.504211,1485.993408 
	C794.562378,1486.082642 784.619385,1486.038696 774.206177,1486.038696 
	C774.206177,1509.785156 774.206177,1532.997070 774.206177,1556.543213 
	C764.314392,1556.543213 754.892151,1556.543213 744.573059,1556.543213 
	C744.573059,1547.620483 744.573059,1538.560181 744.573242,1528.999756 
z"/>
<path fill="#000000" opacity="1.000000" stroke="none" 
	d="
M1853.384766,1476.006836 
	C1853.384888,1470.879517 1853.384888,1466.250854 1853.384888,1461.370850 
	C1863.338013,1461.370850 1872.767456,1461.370850 1882.683350,1461.370850 
	C1882.683350,1493.062378 1882.683350,1524.730103 1882.683350,1556.665771 
	C1873.120117,1556.665771 1863.676758,1556.665771 1853.384766,1556.665771 
	C1853.384766,1529.978149 1853.384766,1503.241821 1853.384766,1476.006836 
z"/>
<path fill="#fff" opacity="1.000000" stroke="none" 
	d="
M1455.097168,1518.561157 
	C1454.914917,1517.842163 1454.825684,1517.520630 1454.763550,1517.193970 
	C1450.781860,1496.244263 1458.652100,1485.838745 1479.933838,1485.120483 
	C1491.864136,1484.718018 1503.943726,1484.698364 1515.766479,1486.102661 
	C1533.354370,1488.191528 1541.667725,1510.194214 1530.859619,1524.510742 
	C1526.216675,1530.660889 1519.140747,1532.411621 1512.216675,1532.595703 
	C1498.790405,1532.952759 1485.300171,1532.749146 1471.906738,1531.791748 
	C1464.135620,1531.236206 1457.601318,1527.353638 1455.097168,1518.561157 
z"/>
</svg>