<svg id="Layer_2" enable-background="new 0 0 512 512" height="512" viewBox="0 0 512 512" width="512" xmlns="http://www.w3.org/2000/svg"><g><g><path d="m72 10h368v492h-368z" fill="#edeff1"/><g fill="#d3d3d3"><path d="m120 343.339h272v14h-272z"/><path d="m120 297.339h272v14h-272z"/><path d="m120 251.339h272v14h-272z"/><path d="m120 205.339h272v14h-272z"/><path d="m120 159.339h272v14h-272z"/></g></g><g><g><circle cx="256" cy="258.339" fill="#ffe352" r="100"/><circle cx="256" cy="258.339" fill="#ffb236" r="90"/><circle cx="256" cy="258.339" fill="#ffe352" r="80"/><path d="m256 249.339c-7.903 0-14.333-6.43-14.333-14.333s6.43-14.334 14.333-14.334 14.333 6.431 14.333 14.334h18c0-14.706-9.872-27.141-23.333-31.05v-13.617h-18v13.617c-13.461 3.909-23.333 16.344-23.333 31.05 0 17.828 14.505 32.333 32.333 32.333 7.903 0 14.333 6.43 14.333 14.333s-6.43 14.334-14.333 14.334-14.333-6.431-14.333-14.334h-18c0 14.706 9.872 27.141 23.333 31.05v13.617h18v-13.617c13.461-3.909 23.333-16.344 23.333-31.05 0-17.828-14.505-32.333-32.333-32.333z" fill="#6e83b7"/></g><g><g><path d="m291.918 374.678c14.686 0 26.591 11.905 26.591 26.591 0 14.686-11.905 26.591-26.591 26.591h28.637l74.587-74.587c10.049-10.049 26.437-10.681 36.741-.894 10.657 10.122 10.821 26.97.492 37.299l-92.729 92.729c-3.617 3.617-8.522 5.648-13.637 5.648h-188.009v-80.825l21.255-21.255c7.233-7.233 17.044-11.297 27.273-11.297z" fill="#ffd3b3"/><path d="m291.918 427.86h-91.365v-13.637h114.586c-4.548 8.135-13.24 13.637-23.221 13.637z" fill="#fcb98b"/></g><path d="m118 399.5h20v96h-20z" fill="#80d6fb" transform="matrix(-1 0 0 -1 256 895)"/><path d="m118 399.5h7v96h-7z" fill="#46bee8" transform="matrix(-1 0 0 -1 243 895)"/><path d="m72 393h46v109h-46z" fill="#6e83b7" transform="matrix(-1 0 0 -1 190 895)"/></g><g fill="#6e83b7"><path d="m150 142 30-40h-15v-60h-30v60h-15z"/><path d="m362 142 30-40h-15v-60h-30v60h-15z"/><path d="m256 142 30-40h-15v-60h-30v60h-15z"/></g></g></g></svg>